<svg width="57" height="59" viewBox="0 0 57 59" fill="none" xmlns="http://www.w3.org/2000/svg">
<path d="M54.8094 59C54.4766 59.0001 54.1481 58.9113 53.849 58.7404C53.5498 58.5695 53.2878 58.3211 53.0829 58.0139C49.9531 53.3205 47.0492 49.6983 43.0445 47.2706C39.3383 45.0306 34.6833 43.8616 28.5222 43.6436V56.4345C28.5209 56.9352 28.3945 57.4246 28.1586 57.8423C27.9226 58.2599 27.5875 58.5876 27.1945 58.7848C26.8015 58.982 26.3677 59.0403 25.9468 58.9523C25.5259 58.8643 25.1361 58.634 24.8256 58.2897L0.729028 31.3513C0.514893 31.1118 0.344451 30.8239 0.228002 30.505C0.111552 30.1861 0.0515137 29.8429 0.0515137 29.4961C0.0515137 29.1493 0.111552 28.8061 0.228002 28.4872C0.344451 28.1683 0.514893 27.8804 0.729028 27.6409L24.8256 0.702503C25.1361 0.358216 25.5259 0.127883 25.9468 0.0399042C26.3677 -0.0480743 26.8015 0.0101493 27.1945 0.207395C27.5875 0.40464 27.9226 0.732283 28.1586 1.14993C28.3945 1.56757 28.5209 2.05695 28.5222 2.55772V15.4432C38.6729 15.99 46.236 20.3996 51.0238 28.5709C54.9901 35.3392 57 44.7131 57 56.4345C57 57.1149 56.7692 57.7675 56.3584 58.2486C55.9476 58.7297 55.3904 59 54.8094 59Z" fill="white"/>
</svg>
