<?xml version="1.0" encoding="UTF-8"?>
<svg id="Lager_1" xmlns="http://www.w3.org/2000/svg" viewBox="0 0 110.59 104.13">
  <defs>
    <style>
      .cls-1 {
        fill: #fff;
      }

      .cls-2 {
        fill: #00b2ff;
      }
    </style>
  </defs>
  <path class="cls-1" d="M5,104.13h100.59c2.76,0,5-2.24,5-5v-20.46c0-1.01-.3-1.99-.87-2.82L59.43,2.18c-1.99-2.91-6.27-2.91-8.26,0L.87,75.86c-.57.83-.87,1.81-.87,2.82v20.46c0,2.76,2.24,5,5,5Z"/>
  <g>
    <g>
      <path class="cls-2" d="M55.3,34.7c-17.04,0-30.87,13.83-30.87,30.87s13.83,30.87,30.87,30.87,30.87-13.83,30.87-30.87-13.83-30.87-30.87-30.87Z"/>
      <path d="M55.3,99.02c-18.44,0-33.44-15-33.44-33.44s15-33.44,33.44-33.44,33.44,15,33.44,33.44-15,33.44-33.44,33.44ZM55.3,37.28c-15.6,0-28.3,12.69-28.3,28.3s12.69,28.3,28.3,28.3,28.3-12.69,28.3-28.3-12.69-28.3-28.3-28.3Z"/>
    </g>
    <path d="M70.73,70.72h-15.44c-1.42,0-2.57-1.15-2.57-2.57v-23.15c0-1.42,1.15-2.57,2.57-2.57s2.57,1.15,2.57,2.57v20.58h12.86c1.42,0,2.57,1.15,2.57,2.57s-1.15,2.57-2.57,2.57Z"/>
  </g>
</svg>