<?xml version="1.0" encoding="UTF-8"?>
<svg id="Lager_1" xmlns="http://www.w3.org/2000/svg" viewBox="0 0 110.61 104.18">
  <defs>
    <style>
      .cls-1 {
        fill: #fff;
      }

      .cls-2 {
        fill: #00b2ff;
      }
    </style>
  </defs>
  <path class="cls-1" d="M105.62.1L5.03,0C2.26,0,.02,2.23.02,4.99L0,25.45c0,1.01.3,1.99.87,2.82l50.22,73.73c1.98,2.91,6.27,2.91,8.26,0L109.72,28.38c.57-.83.87-1.81.87-2.82l.02-20.46c0-2.76-2.23-5-4.99-5.01Z"/>
  <g>
    <g>
      <path class="cls-2" d="M55.31,8.75c-17.04,0-30.87,13.83-30.87,30.87s13.83,30.87,30.87,30.87,30.87-13.83,30.87-30.87-13.83-30.87-30.87-30.87Z"/>
      <path d="M55.31,73.07c-18.44,0-33.44-15-33.44-33.44S36.87,6.18,55.31,6.18s33.44,15,33.44,33.44-15,33.44-33.44,33.44ZM55.31,11.33c-15.6,0-28.3,12.69-28.3,28.3s12.69,28.3,28.3,28.3,28.3-12.69,28.3-28.3-12.69-28.3-28.3-28.3Z"/>
    </g>
    <path d="M70.74,44.77h-15.44c-1.42,0-2.57-1.15-2.57-2.57v-23.15c0-1.42,1.15-2.57,2.57-2.57s2.57,1.15,2.57,2.57v20.58h12.86c1.42,0,2.57,1.15,2.57,2.57s-1.15,2.57-2.57,2.57Z"/>
  </g>
</svg>