<?xml version="1.0" encoding="UTF-8"?>
<svg id="Lager_1" xmlns="http://www.w3.org/2000/svg" viewBox="0 0 384 448">
  <defs>
    <style>
      .cls-1 {
        stroke-miterlimit: 10;
      }

      .cls-1, .cls-2 {
        fill: none;
        stroke: #000;
        stroke-linecap: round;
        stroke-width: 32px;
      }

      .cls-2 {
        stroke-linejoin: round;
      }
    </style>
  </defs>
  <path class="cls-2" d="M48,80l20,320c.95,18.49,14.4,32,32,32h184c17.67,0,30.87-13.51,32-32l20-320"/>
  <path class="cls-1" d="M16,80h352"/>
  <path class="cls-2" d="M128,80v-40c0-3.15.6-6.28,1.81-9.2,1.2-2.92,2.97-5.57,5.2-7.8,2.23-2.23,4.88-4,7.8-5.2,2.92-1.2,6.04-1.82,9.2-1.81h80c3.15,0,6.28.61,9.2,1.81,2.92,1.2,5.57,2.97,7.8,5.2,2.23,2.23,4,4.88,5.2,7.8,1.2,2.92,1.82,6.04,1.81,9.2v40M192,144v224M120,144l8,224M264,144l-8,224"/>
</svg>